<svg viewBox="0 0 720 560" xmlns="http://www.w3.org/2000/svg" role="img" aria-label="afk cockpit: 108 merged PRs, $5.17 per PR, 1660 attempts, 6 repos" font-family="-apple-system, BlinkMacSystemFont, 'Segoe UI', Roboto, Helvetica, Arial, sans-serif">
  <rect width="720" height="560" fill="#ffffff"/>

  <circle cx="44" cy="66" r="5" fill="#4f7a4f"/>
  <text x="58" y="71" font-size="13" font-weight="600" letter-spacing="1.5" fill="#9a9a95">AFK · AUTONOMOUS AGENTS</text>
  <rect x="574" y="52" width="106" height="30" rx="15" fill="none" stroke="#e4e4e0"/>
  <text x="627" y="72" font-size="13" font-weight="500" fill="#6a6a66" text-anchor="middle">Python</text>

  <text x="40" y="130" font-size="27" font-weight="700" fill="#1f1f1f">Autonomous PRs, human-gated</text>
  <text x="40" y="160" font-size="15" fill="#8a8a86">Files, runs &amp; merges coding work across a repo fleet — quarantines are a safety signal.</text>

  <rect x="40" y="196" width="148" height="112" rx="14" fill="#f6f6f4"/>
  <text x="114" y="258" font-size="36" font-weight="700" fill="#1f1f1f" text-anchor="middle">108</text>
  <text x="114" y="286" font-size="12.5" fill="#8a8a86" text-anchor="middle">Merged PRs</text>

  <rect x="204" y="196" width="148" height="112" rx="14" fill="#f6f6f4"/>
  <text x="278" y="258" font-size="36" font-weight="700" fill="#2f6f5f" text-anchor="middle">$5.17</text>
  <text x="278" y="286" font-size="12.5" fill="#8a8a86" text-anchor="middle">Cost / PR</text>

  <rect x="368" y="196" width="148" height="112" rx="14" fill="#f6f6f4"/>
  <text x="442" y="258" font-size="36" font-weight="700" fill="#1f1f1f" text-anchor="middle">1,660</text>
  <text x="442" y="286" font-size="12.5" fill="#8a8a86" text-anchor="middle">Attempts</text>

  <rect x="532" y="196" width="148" height="112" rx="14" fill="#f6f6f4"/>
  <text x="606" y="258" font-size="36" font-weight="700" fill="#1f1f1f" text-anchor="middle">6</text>
  <text x="606" y="286" font-size="12.5" fill="#8a8a86" text-anchor="middle">Repos</text>

  <text x="40" y="352" font-size="12" font-weight="600" letter-spacing="1.2" fill="#9a9a95">ATTEMPTS BY REPO</text>
  <g font-size="13.5">
    <text x="40" y="378" fill="#3a3a3a">afk-agent-system</text>
    <rect x="230" y="369" width="410" height="10" rx="5" fill="#eeeeea"/>
    <rect x="230" y="369" width="410" height="10" rx="5" fill="#2f6f5f"/>
    <text x="660" y="378" fill="#6a6a66" text-anchor="end" font-weight="600">769</text>

    <text x="40" y="404" fill="#3a3a3a">Orbit-Wars</text>
    <rect x="230" y="395" width="410" height="10" rx="5" fill="#eeeeea"/>
    <rect x="230" y="395" width="391" height="10" rx="5" fill="#2f6f5f"/>
    <text x="660" y="404" fill="#6a6a66" text-anchor="end" font-weight="600">733</text>

    <text x="40" y="430" fill="#3a3a3a">afk-cockpit</text>
    <rect x="230" y="421" width="410" height="10" rx="5" fill="#eeeeea"/>
    <rect x="230" y="421" width="34" height="10" rx="5" fill="#b0872f"/>
    <text x="660" y="430" fill="#6a6a66" text-anchor="end" font-weight="600">64</text>

    <text x="40" y="456" fill="#3a3a3a">claude-workflow</text>
    <rect x="230" y="447" width="410" height="10" rx="5" fill="#eeeeea"/>
    <rect x="230" y="447" width="21" height="10" rx="5" fill="#2f6f5f"/>
    <text x="660" y="456" fill="#6a6a66" text-anchor="end" font-weight="600">40</text>

    <text x="40" y="482" fill="#3a3a3a">household-bms</text>
    <rect x="230" y="473" width="410" height="10" rx="5" fill="#eeeeea"/>
    <rect x="230" y="473" width="16" height="10" rx="5" fill="#2f6f5f"/>
    <text x="660" y="482" fill="#6a6a66" text-anchor="end" font-weight="600">30</text>

    <text x="40" y="508" fill="#3a3a3a">my-brain</text>
    <rect x="230" y="499" width="410" height="10" rx="5" fill="#eeeeea"/>
    <rect x="230" y="499" width="13" height="10" rx="5" fill="#2f6f5f"/>
    <text x="660" y="508" fill="#6a6a66" text-anchor="end" font-weight="600">24</text>
  </g>
</svg>
