<svg viewBox="0 0 720 560" xmlns="http://www.w3.org/2000/svg" role="img" aria-label="Oura Ring pipeline cockpit: 13 API sources, 15 dbt models, 3 schedules, 11 test modules" font-family="-apple-system, BlinkMacSystemFont, 'Segoe UI', Roboto, Helvetica, Arial, sans-serif">
  <rect width="720" height="560" fill="#ffffff"/>

  <circle cx="44" cy="66" r="5" fill="#4f7a4f"/>
  <text x="58" y="71" font-size="13" font-weight="600" letter-spacing="1.5" fill="#9a9a95">OURA RING PIPELINE · ELT</text>
  <rect x="566" y="52" width="114" height="30" rx="15" fill="none" stroke="#e4e4e0"/>
  <text x="623" y="72" font-size="13" font-weight="500" fill="#6a6a66" text-anchor="middle">Snowflake</text>

  <text x="40" y="130" font-size="27" font-weight="700" fill="#1f1f1f">Daily health metrics, modeled</text>
  <text x="40" y="160" font-size="15" fill="#8a8a86">OAuth2 extract into Snowflake, transformed with dbt, orchestrated by Dagster.</text>

  <rect x="40" y="196" width="148" height="112" rx="14" fill="#f6f6f4"/>
  <text x="114" y="258" font-size="36" font-weight="700" fill="#1f1f1f" text-anchor="middle">13</text>
  <text x="114" y="286" font-size="12.5" fill="#8a8a86" text-anchor="middle">API sources</text>

  <rect x="204" y="196" width="148" height="112" rx="14" fill="#f6f6f4"/>
  <text x="278" y="258" font-size="36" font-weight="700" fill="#2f6f5f" text-anchor="middle">15</text>
  <text x="278" y="286" font-size="12.5" fill="#8a8a86" text-anchor="middle">dbt models</text>

  <rect x="368" y="196" width="148" height="112" rx="14" fill="#f6f6f4"/>
  <text x="442" y="258" font-size="36" font-weight="700" fill="#1f1f1f" text-anchor="middle">3</text>
  <text x="442" y="286" font-size="12.5" fill="#8a8a86" text-anchor="middle">Schedules</text>

  <rect x="532" y="196" width="148" height="112" rx="14" fill="#f6f6f4"/>
  <text x="606" y="258" font-size="36" font-weight="700" fill="#1f1f1f" text-anchor="middle">11</text>
  <text x="606" y="286" font-size="12.5" fill="#8a8a86" text-anchor="middle">Test modules</text>

  <text x="40" y="356" font-size="12" font-weight="600" letter-spacing="1.2" fill="#9a9a95">PIPELINE STAGES</text>
  <text x="40" y="392" font-size="13.5" fill="#3a3a3a">Extract · raw endpoints</text>
  <rect x="260" y="382" width="380" height="11" rx="5.5" fill="#eeeeea"/>
  <rect x="260" y="382" width="380" height="11" rx="5.5" fill="#2f6f5f"/>
  <text x="654" y="392" font-size="13.5" fill="#6a6a66" text-anchor="end" font-weight="600">13</text>

  <text x="40" y="424" font-size="13.5" fill="#3a3a3a">Stage · dbt views</text>
  <rect x="260" y="414" width="380" height="11" rx="5.5" fill="#eeeeea"/>
  <rect x="260" y="414" width="380" height="11" rx="5.5" fill="#2f6f5f"/>
  <text x="654" y="424" font-size="13.5" fill="#6a6a66" text-anchor="end" font-weight="600">13</text>

  <text x="40" y="456" font-size="13.5" fill="#3a3a3a">Marts · fact tables</text>
  <rect x="260" y="446" width="380" height="11" rx="5.5" fill="#eeeeea"/>
  <rect x="260" y="446" width="58" height="11" rx="5.5" fill="#b0872f"/>
  <text x="654" y="456" font-size="13.5" fill="#6a6a66" text-anchor="end" font-weight="600">2</text>

  <g font-size="12" fill="#6a6a66">
    <rect x="40" y="486" width="128" height="30" rx="15" fill="#f6f6f4"/>
    <text x="104" y="505" text-anchor="middle">Daily · incremental</text>
    <rect x="180" y="486" width="104" height="30" rx="15" fill="#f6f6f4"/>
    <text x="232" y="505" text-anchor="middle">Weekly report</text>
    <rect x="296" y="486" width="110" height="30" rx="15" fill="#f6f6f4"/>
    <text x="351" y="505" text-anchor="middle">Monthly report</text>
  </g>
</svg>
